<svg id="Capa_1" data-name="Capa 1" xmlns="http://www.w3.org/2000/svg" viewBox="0 0 77.9 96.43"><path d="M93.31,16.45c-3.66-4.57-8.12-8-13.91-9.33-3-.69-6-1.13-9-1.73a24.24,24.24,0,0,1-2.81-.76C63,3.18,58.41,1.78,53.88.26A3.08,3.08,0,0,0,49.8,4l-.48.09a3,3,0,0,0-2.54,3A2.93,2.93,0,0,0,49.47,10c2.31.21,4.63.33,7,.48l2.85.21c0,.07,0,.13,0,.13-2.56,1.8-3.3,4.51-3.63,7.39a2.31,2.31,0,0,0,1.2,2.27,2.41,2.41,0,0,0,.36.18,25.39,25.39,0,0,0-19.32,1l-.1.05a3.23,3.23,0,0,0-.41.22,1.14,1.14,0,0,0-.4,1.47,1.08,1.08,0,0,0,1.39.62,3.28,3.28,0,0,0,.59-.23l.2-.09C47,20.39,54.47,21,61.39,25.45c6.66,4.32,10.18,10.71,10.46,19a21.62,21.62,0,0,1-2,9.72.54.54,0,0,1,0,.11L29.64,31.86l.26-.37a9.7,9.7,0,0,1,.94-1.25c.91-.94,1.87-1.86,2.8-2.75l1.07-1c.07-.07.16-.13.24-.2l.3-.24a1.18,1.18,0,1,0-1.52-1.81,24.92,24.92,0,0,0-5.44,5.47l-.67.93-.07.1-2.61-1.46a3.71,3.71,0,0,0-.53-.26,1.16,1.16,0,0,0-1.49.52h0a1.11,1.11,0,0,0-.09.91,1.21,1.21,0,0,0,.55.67c.31.2.63.38.95.55L73.06,58.82c.23.13.47.27.71.38a1.29,1.29,0,0,0,.86.11,1.23,1.23,0,0,0,.67-.53A1.1,1.1,0,0,0,75,57.23a3.71,3.71,0,0,0-.54-.35L72,55.48c4.45-11.57,2.23-21.68-6.57-30.09a3.28,3.28,0,0,0,1.94-.58c2.09-1.12,4.18-2.27,6.31-3.32a11.42,11.42,0,0,1,3-1.08A4,4,0,0,1,81,22.32c1.3,2,2.51,4,3.8,6a2.91,2.91,0,0,0,1.2,1,1.55,1.55,0,0,0,1.92-.78q2.83-5,5.61-10A1.68,1.68,0,0,0,93.31,16.45ZM51.65,2.38a1.17,1.17,0,0,1,1.42-.47l4.74,1.38,3.78,1.16a2,2,0,0,1-.39.08c-2.94-.13-5.89-.25-8.84-.41a1.1,1.1,0,0,1-.69-.4A1.07,1.07,0,0,1,51.65,2.38ZM61.2,17.91a6.84,6.84,0,0,1,2-2.81,4.07,4.07,0,0,1,3,.1c.78.27,1.34.65,1.44,1s-.9,1.55-1.63,2.44c-.34.42-.69.85-1,1.29A8.5,8.5,0,0,0,61.2,17.91Zm2.52,4.41a1.54,1.54,0,0,1-.36.41,1.37,1.37,0,0,1-1.56.12l-.43-.24-.76-.42a1.35,1.35,0,0,1-.69-1.69,1.14,1.14,0,0,1,.07-.19.81.81,0,0,1,.2-.16,5.83,5.83,0,0,1,3.53,2A.41.41,0,0,1,63.72,22.32Zm28-4.17q-2.5,4.43-5,8.87c-.09.16-.2.3-.32.51l-.3-.44c-1.22-1.93-2.41-3.88-3.65-5.78A5.86,5.86,0,0,0,76,18.72,16.19,16.19,0,0,0,72.71,20c-2.09,1-4.13,2.18-6.21,3.26a3,3,0,0,1-.66.22,2.13,2.13,0,0,0,.23-2.06,3.83,3.83,0,0,1,.45-.5,7.73,7.73,0,0,0,3-3.92,2.74,2.74,0,0,0-1.48-3.55,7.07,7.07,0,0,0-4.5-.68,4.9,4.9,0,0,0-4.19,3.48c-.15.48-.27,1-.39,1.45L58.9,18a2.16,2.16,0,0,0-1,1.06s0,0,0,0a.85.85,0,0,1-.51-1A18.2,18.2,0,0,1,58,15.67a7.21,7.21,0,0,1,.93-2,7.73,7.73,0,0,1,3.75-2.65l.21-.07c.64-.22.93-.57.85-1.05s-.52-.75-1-.78l-7.11-.48c-1.91-.13-3.83-.24-5.74-.38A1.24,1.24,0,0,1,48.56,7a1.21,1.21,0,0,1,1.31-1.16h.35C53,6,55.69,6,58.43,6.16A123.19,123.19,0,0,1,77.08,8.32a24.72,24.72,0,0,1,14.53,8.82A.74.74,0,0,1,91.71,18.15Z" transform="translate(-15.86 -0.07)"/><path d="M74.69,70.85a2.61,2.61,0,0,0-2.25-1H18.82a2.62,2.62,0,0,0-2.71,1.5,3.67,3.67,0,0,0-.25,1.44,6.83,6.83,0,0,0,0,1.11A2.54,2.54,0,0,0,18.54,76c2.05,0,4.09,0,6.14,0h.68c0,.25-.06.42-.08.59a2.4,2.4,0,0,0,.66,2.1c2.11,1.87,4.22,3.76,6.39,5.55a13.64,13.64,0,0,0,5,2.48,34.47,34.47,0,0,0,6.58,1.5,24.87,24.87,0,0,0,5.24-.33,14.27,14.27,0,0,1,6.3.26,5,5,0,0,1,2.27,1.53l-.24.27a2.34,2.34,0,0,0-.39,3.12c.47.77,1,1.49,1.5,2.23a2.43,2.43,0,0,0,3.61.7c.91-.59,1.8-1.22,2.71-1.83l7.83-5.32c1.63-1.11,1.88-2.36.76-4-.42-.63-.84-1.26-1.28-1.88a2.33,2.33,0,0,0-3-1c-.37.14-.49,0-.67-.25-1-1.25-2-2.5-3.08-3.74-.58-.68-1.21-1.29-1.87-2,.21,0,.4,0,.61,0,2.54,0,5.1,0,7.65,0,1.59,0,2.77-.42,3.37-2V71.8c-.09-.16-.16-.31-.25-.46A2.43,2.43,0,0,0,74.69,70.85Zm-5.23,13c.76-.51,1-.47,1.47.28l1.21,1.79c.45.67.41.93-.26,1.39L61.29,94.48c-.16.11-.37.19-.62.33a2.33,2.33,0,0,1-.57-.44c-.52-.72-1-1.47-1.51-2.21a.68.68,0,0,1,.22-1L60,90.32Zm-2-.73-8.18,5.57c-.15-.15-.28-.26-.4-.39a7.4,7.4,0,0,0-3.15-1.93A16.26,16.26,0,0,0,49,86.12a17.76,17.76,0,0,1-5.63.26c-1.65-.31-3.26-.73-4.88-1.15A15,15,0,0,1,32,81.71c-1.43-1.32-2.91-2.59-4.37-3.88a2.65,2.65,0,0,1-.41-.41.93.93,0,0,1,0-1.15.71.71,0,0,1,1-.15,12.24,12.24,0,0,1,1.38.86c2.6,1.83,5.25,3.58,8.48,4.12a2.85,2.85,0,0,1,.39.11c1.72.63,3.5.36,5.26.4a1,1,0,0,0,.71-.56,1.33,1.33,0,0,0-.21-.88c-.09-.17-.34-.25-.53-.36-.77-.41-1.56-.81-2.3-1.26A1.16,1.16,0,0,1,42,76.42a2.76,2.76,0,0,1,.69.08c2.18.45,4.34.93,6.52,1.34a3.92,3.92,0,0,0,1.6,0c1.85-.46,3.7-1,5.53-1.48a6.82,6.82,0,0,1,7.08,2C64.89,79.79,66.08,81.48,67.43,83.12ZM39.12,78a8.92,8.92,0,0,0,.67,1.8C36.85,79,33.86,78.3,31.51,76h7.81A8.71,8.71,0,0,0,39.12,78Zm34.36-4.73c0,.72-.28,1-1,1H19a1.38,1.38,0,0,1-1.26-2.18,1.18,1.18,0,0,1,.64-.43l.16,0H72.29c.95,0,1.19.24,1.19,1.17C73.48,72.91,73.49,73.07,73.48,73.22Z" transform="translate(-15.86 -0.07)"/><path d="M45.61,64.13a1.3,1.3,0,0,0-.94.47,1.35,1.35,0,0,0-.31,1,1.26,1.26,0,0,0,.45.93,1.42,1.42,0,0,0,1,.3,1.38,1.38,0,0,0,1-.46,1.32,1.32,0,0,0,.32-1,1.37,1.37,0,0,0-.46-1A1.32,1.32,0,0,0,45.61,64.13Z" transform="translate(-15.86 -0.07)"/><path d="M50.73,54.48a5.06,5.06,0,0,0,.54-2.81,4.39,4.39,0,0,0-.86-2.39,4.52,4.52,0,0,0-2-1.46,6.29,6.29,0,0,0-2.78-.37A6.22,6.22,0,0,0,41.84,49a6.62,6.62,0,0,0-2,3.63l1.59.63q.9-3.73,4.24-4a4,4,0,0,1,2.54.56,2.56,2.56,0,0,1,1.12,2.08,3.93,3.93,0,0,1-.13,1.35,4.25,4.25,0,0,1-.68,1.29,17.79,17.79,0,0,1-1.43,1.65,7.64,7.64,0,0,0-1.95,2.74,7.3,7.3,0,0,0-.31,3.21l1.46,0a5.81,5.81,0,0,1,.47-2.5,7.52,7.52,0,0,1,1.69-2.25A12.13,12.13,0,0,0,50.73,54.48Z" transform="translate(-15.86 -0.07)"/></svg>